<svg id="Solid_G" height="512" viewBox="0 0 512 512" width="512" xmlns="http://www.w3.org/2000/svg" xmlns:xlink="http://www.w3.org/1999/xlink" data-name="Solid G"><linearGradient id="linear-gradient" gradientUnits="userSpaceOnUse" x1="116" x2="116" y1="-39.208" y2="503.668"><stop offset="0" stop-color="#ff91d2"/><stop offset=".262" stop-color="#f68bd9"/><stop offset=".688" stop-color="#de79ed"/><stop offset=".999" stop-color="#c86aff"/></linearGradient><linearGradient id="linear-gradient-2" x1="110.029" x2="110.029" xlink:href="#linear-gradient" y1="-39.208" y2="503.668"/><linearGradient id="linear-gradient-3" x1="136" x2="136" xlink:href="#linear-gradient" y1="-39.208" y2="503.668"/><linearGradient id="linear-gradient-4" x1="161.971" x2="161.971" xlink:href="#linear-gradient" y1="-39.208" y2="503.668"/><linearGradient id="linear-gradient-5" x1="168" x2="168" xlink:href="#linear-gradient" y1="-39.208" y2="503.668"/><linearGradient id="linear-gradient-6" x1="356" x2="356" xlink:href="#linear-gradient" y1="-39.208" y2="503.668"/><linearGradient id="linear-gradient-7" x1="402.472" x2="402.472" xlink:href="#linear-gradient" y1="-39.208" y2="503.668"/><linearGradient id="linear-gradient-8" x1="416" x2="416" xlink:href="#linear-gradient" y1="-39.208" y2="503.668"/><linearGradient id="linear-gradient-9" x1="400" x2="400" xlink:href="#linear-gradient" y1="-39.208" y2="503.668"/><linearGradient id="linear-gradient-11" x1="160" x2="160" xlink:href="#linear-gradient" y1="-39.208" y2="503.668"/><linearGradient id="linear-gradient-12" x1="299.562" x2="299.563" xlink:href="#linear-gradient" y1="-39.208" y2="503.668"/><linearGradient id="linear-gradient-13" x1="384.298" x2="384.298" xlink:href="#linear-gradient" y1="-39.208" y2="503.668"/><linearGradient id="linear-gradient-15" x1="420" x2="420" xlink:href="#linear-gradient" y1="-39.208" y2="503.668"/><linearGradient id="linear-gradient-17" x1="164" x2="164" xlink:href="#linear-gradient" y1="-39.208" y2="503.668"/><linearGradient id="linear-gradient-19" x1="260" x2="260" xlink:href="#linear-gradient" y1="-39.208" y2="503.668"/><g><g><path d="m100 56h44v-12a12.013 12.013 0 0 0 -12-12h-44v12a12.013 12.013 0 0 0 12 12z" fill="url(#linear-gradient)"/><path d="m119.351 194.665-12.429-12.429-6.214 15.535z" fill="url(#linear-gradient-2)"/><path d="m109.826 126.966 20 12a11.98 11.98 0 0 0 12.348 0l20-12a12.059 12.059 0 0 0 5.826-10.29v-44.676h-64v44.676a12.059 12.059 0 0 0 5.826 10.29z" fill="url(#linear-gradient-3)"/><path d="m165.078 182.236-12.429 12.429 18.643 3.106z" fill="url(#linear-gradient-4)"/><path d="m176 55.616a11.982 11.982 0 0 0 -9.09-11.642l-6.91-1.727v13.753h16z" fill="url(#linear-gradient-5)"/><path d="m376 304h-18a22.025 22.025 0 0 0 -22 22v2h40z" fill="url(#linear-gradient-6)"/><path d="m396 184h32a12.013 12.013 0 0 0 12-12v-60h-64v16a7.994 7.994 0 0 1 -.845 3.578l-10.211 20.422h11.056a8 8 0 0 1 8 8v12a12.013 12.013 0 0 0 12 12z" fill="url(#linear-gradient-7)"/><path d="m379.719 224.243a51.762 51.762 0 0 0 -3.719 19.312v44.445h40v-56h16v64a8 8 0 0 1 -8 8h-32v24h64v-116a12.013 12.013 0 0 0 -12-12h-54.584z" fill="url(#linear-gradient-8)"/><path d="m372 96h68v-10a22.025 22.025 0 0 0 -22-22h-58v20a12.013 12.013 0 0 0 12 12z" fill="url(#linear-gradient-9)"/><path d="m158.266 166.42-7.1-14.192-.764.458a27.948 27.948 0 0 1 -28.812 0l-.764-.458-7.1 14.192 22.274 22.266z" fill="url(#linear-gradient-3)"/><path d="m272 344h-224v136h200.8a40.151 40.151 0 0 1 23.2-28.66zm-24 80a8 8 0 0 1 -8 8h-160a8 8 0 0 1 -8-8v-48a8 8 0 0 1 8-8h160a8 8 0 0 1 8 8z" fill="url(#linear-gradient-11)"/><path d="m265.371 480h64.383l4-16h-45.754a24.042 24.042 0 0 0 -22.629 16z" fill="url(#linear-gradient-12)"/><path d="m444 376a12.013 12.013 0 0 0 12-12v-20h-95.544a32.146 32.146 0 0 0 -31.314 25.408l-16.542 78.592h27.341l20.417-66.353a8 8 0 0 1 7.642-5.647z" fill="url(#linear-gradient-13)"/><path d="m128 272h-40v-16h74a38.043 38.043 0 0 1 38 38v2h16v-90.14a12.056 12.056 0 0 0 -7.786-11.236l-24.645-9.242 7.859 19.647a8 8 0 0 1 -8.743 10.862l-46.685-7.781-46.685 7.781a8 8 0 0 1 -8.743-10.862l7.859-19.647-24.645 9.242a12.056 12.056 0 0 0 -7.786 11.236v90.14h72z" fill="url(#linear-gradient-3)"/><path d="m373.908 392-7.384 24h41.476v32h-20a28.032 28.032 0 0 0 -28 28v4h16v-4a12.013 12.013 0 0 1 12-12h56a12.013 12.013 0 0 1 12 12v4h16v-4a28.032 28.032 0 0 0 -28-28h-20v-32h34a22.025 22.025 0 0 0 22-22v-2z" fill="url(#linear-gradient-15)"/><path d="m32 312h256v16h-256z" fill="url(#linear-gradient-11)"/><path d="m144 272v24h40v-2a22.025 22.025 0 0 0 -22-22z" fill="url(#linear-gradient-17)"/><path d="m88 384h144v32h-144z" fill="url(#linear-gradient-11)"/></g><path d="m300 56h-64a12.013 12.013 0 0 0 -12 12v44a8 8 0 0 1 -1.6 4.8l-14.4 19.2h92a12.013 12.013 0 0 0 12-12v-56a12.013 12.013 0 0 0 -12-12zm-4 64h-56v-16h56zm0-32h-56v-16h56z" fill="url(#linear-gradient-19)"/></g></svg>